<svg id="visual" viewBox="0 0 900 600" width="900" height="600" xmlns="http://www.w3.org/2000/svg" xmlns:xlink="http://www.w3.org/1999/xlink" version="1.1"><g stroke-width="1" stroke-linejoin="bevel"><path d="M401 329L397 377L487 401Z" fill="#00101c" stroke="#00101c"></path><path d="M487 401L509 303L401 329Z" fill="#00101c" stroke="#00101c"></path><path d="M509 303L397 237L401 329Z" fill="#246688" stroke="#246688"></path><path d="M401 329L319 284L397 377Z" fill="#246688" stroke="#246688"></path><path d="M487 401L587 325L509 303Z" fill="#246688" stroke="#246688"></path><path d="M509 303L495 189L397 237Z" fill="#205a7a" stroke="#205a7a"></path><path d="M397 237L319 284L401 329Z" fill="#00101c" stroke="#00101c"></path><path d="M319 284L312 422L397 377Z" fill="#0c2435" stroke="#0c2435"></path><path d="M379 539L506 539L487 401Z" fill="#00101c" stroke="#00101c"></path><path d="M487 401L609 369L587 325Z" fill="#246688" stroke="#246688"></path><path d="M579 205L495 189L509 303Z" fill="#205a7a" stroke="#205a7a"></path><path d="M506 539L579 476L487 401Z" fill="#15384f" stroke="#15384f"></path><path d="M487 401L579 476L609 369Z" fill="#1d4e6b" stroke="#1d4e6b"></path><path d="M379 539L487 401L397 377Z" fill="#1d4e6b" stroke="#1d4e6b"></path><path d="M312 422L379 539L397 377Z" fill="#1d4e6b" stroke="#1d4e6b"></path><path d="M673 218L579 205L587 325Z" fill="#00101c" stroke="#00101c"></path><path d="M587 325L579 205L509 303Z" fill="#246688" stroke="#246688"></path><path d="M579 205L483 131L495 189Z" fill="#19435d" stroke="#19435d"></path><path d="M495 189L388 129L397 237Z" fill="#205a7a" stroke="#205a7a"></path><path d="M397 237L283 162L319 284Z" fill="#205a7a" stroke="#205a7a"></path><path d="M211 461L264 490L312 422Z" fill="#112e42" stroke="#112e42"></path><path d="M312 422L264 490L379 539Z" fill="#112e42" stroke="#112e42"></path><path d="M483 131L388 129L495 189Z" fill="#15384f" stroke="#15384f"></path><path d="M379 539L436 600L506 539Z" fill="#112e42" stroke="#112e42"></path><path d="M688 498L691 405L579 476Z" fill="#19435d" stroke="#19435d"></path><path d="M306 600L436 600L379 539Z" fill="#297ea6" stroke="#297ea6"></path><path d="M579 476L691 405L609 369Z" fill="#297ea6" stroke="#297ea6"></path><path d="M726 319L673 218L587 325Z" fill="#112e42" stroke="#112e42"></path><path d="M622 600L579 476L506 539Z" fill="#15384f" stroke="#15384f"></path><path d="M436 600L511 600L506 539Z" fill="#0c2435" stroke="#0c2435"></path><path d="M283 162L216 260L319 284Z" fill="#205a7a" stroke="#205a7a"></path><path d="M319 284L166 390L312 422Z" fill="#246688" stroke="#246688"></path><path d="M388 129L283 162L397 237Z" fill="#297ea6" stroke="#297ea6"></path><path d="M166 390L211 461L312 422Z" fill="#19435d" stroke="#19435d"></path><path d="M264 490L306 600L379 539Z" fill="#246688" stroke="#246688"></path><path d="M726 319L587 325L609 369Z" fill="#277297" stroke="#277297"></path><path d="M579 205L638 107L483 131Z" fill="#081a28" stroke="#081a28"></path><path d="M622 600L688 498L579 476Z" fill="#15384f" stroke="#15384f"></path><path d="M783 370L726 319L691 405Z" fill="#297ea6" stroke="#297ea6"></path><path d="M691 405L726 319L609 369Z" fill="#112e42" stroke="#112e42"></path><path d="M161 600L306 600L264 490Z" fill="#1d4e6b" stroke="#1d4e6b"></path><path d="M216 260L166 390L319 284Z" fill="#1d4e6b" stroke="#1d4e6b"></path><path d="M511 600L622 600L506 539Z" fill="#0c2435" stroke="#0c2435"></path><path d="M339 0L262 126L388 129Z" fill="#081a28" stroke="#081a28"></path><path d="M388 129L262 126L283 162Z" fill="#1d4e6b" stroke="#1d4e6b"></path><path d="M283 162L164 205L216 260Z" fill="#1d4e6b" stroke="#1d4e6b"></path><path d="M216 260L132 311L166 390Z" fill="#246688" stroke="#246688"></path><path d="M731 68L638 107L673 218Z" fill="#297ea6" stroke="#297ea6"></path><path d="M673 218L638 107L579 205Z" fill="#19435d" stroke="#19435d"></path><path d="M483 131L402 0L388 129Z" fill="#081a28" stroke="#081a28"></path><path d="M164 205L132 311L216 260Z" fill="#112e42" stroke="#112e42"></path><path d="M262 126L164 205L283 162Z" fill="#277297" stroke="#277297"></path><path d="M688 498L783 370L691 405Z" fill="#277297" stroke="#277297"></path><path d="M726 319L771 239L673 218Z" fill="#00101c" stroke="#00101c"></path><path d="M816 522L783 370L688 498Z" fill="#00101c" stroke="#00101c"></path><path d="M622 600L681 600L688 498Z" fill="#297ea6" stroke="#297ea6"></path><path d="M836 311L771 239L726 319Z" fill="#246688" stroke="#246688"></path><path d="M72 424L138 515L166 390Z" fill="#297ea6" stroke="#297ea6"></path><path d="M166 390L138 515L211 461Z" fill="#297ea6" stroke="#297ea6"></path><path d="M211 461L138 515L264 490Z" fill="#0c2435" stroke="#0c2435"></path><path d="M525 0L402 0L483 131Z" fill="#00101c" stroke="#00101c"></path><path d="M181 80L130 167L164 205Z" fill="#277297" stroke="#277297"></path><path d="M638 107L525 0L483 131Z" fill="#19435d" stroke="#19435d"></path><path d="M164 205L130 167L132 311Z" fill="#1d4e6b" stroke="#1d4e6b"></path><path d="M181 80L164 205L262 126Z" fill="#0c2435" stroke="#0c2435"></path><path d="M402 0L339 0L388 129Z" fill="#00101c" stroke="#00101c"></path><path d="M138 515L161 600L264 490Z" fill="#19435d" stroke="#19435d"></path><path d="M132 311L72 424L166 390Z" fill="#00101c" stroke="#00101c"></path><path d="M138 515L96 600L161 600Z" fill="#0c2435" stroke="#0c2435"></path><path d="M0 370L72 424L132 311Z" fill="#112e42" stroke="#112e42"></path><path d="M237 0L181 80L262 126Z" fill="#246688" stroke="#246688"></path><path d="M900 386L836 311L783 370Z" fill="#15384f" stroke="#15384f"></path><path d="M783 370L836 311L726 319Z" fill="#1d4e6b" stroke="#1d4e6b"></path><path d="M638 107L623 0L525 0Z" fill="#112e42" stroke="#112e42"></path><path d="M689 0L623 0L638 107Z" fill="#1d4e6b" stroke="#1d4e6b"></path><path d="M731 68L673 218L771 239Z" fill="#0c2435" stroke="#0c2435"></path><path d="M804 600L816 522L688 498Z" fill="#00101c" stroke="#00101c"></path><path d="M799 73L731 68L771 239Z" fill="#00101c" stroke="#00101c"></path><path d="M339 0L237 0L262 126Z" fill="#205a7a" stroke="#205a7a"></path><path d="M237 0L127 77L181 80Z" fill="#277297" stroke="#277297"></path><path d="M181 80L127 77L130 167Z" fill="#081a28" stroke="#081a28"></path><path d="M0 262L0 370L132 311Z" fill="#081a28" stroke="#081a28"></path><path d="M681 600L804 600L688 498Z" fill="#19435d" stroke="#19435d"></path><path d="M0 485L96 600L138 515Z" fill="#0c2435" stroke="#0c2435"></path><path d="M731 68L689 0L638 107Z" fill="#081a28" stroke="#081a28"></path><path d="M900 192L799 73L771 239Z" fill="#297ea6" stroke="#297ea6"></path><path d="M731 68L770 0L689 0Z" fill="#205a7a" stroke="#205a7a"></path><path d="M816 522L900 386L783 370Z" fill="#1d4e6b" stroke="#1d4e6b"></path><path d="M836 311L900 192L771 239Z" fill="#15384f" stroke="#15384f"></path><path d="M900 523L900 386L816 522Z" fill="#277297" stroke="#277297"></path><path d="M0 262L132 311L130 167Z" fill="#112e42" stroke="#112e42"></path><path d="M72 424L0 485L138 515Z" fill="#112e42" stroke="#112e42"></path><path d="M900 386L900 296L836 311Z" fill="#1d4e6b" stroke="#1d4e6b"></path><path d="M0 200L0 262L130 167Z" fill="#205a7a" stroke="#205a7a"></path><path d="M0 370L0 485L72 424Z" fill="#19435d" stroke="#19435d"></path><path d="M0 120L0 200L130 167Z" fill="#1d4e6b" stroke="#1d4e6b"></path><path d="M900 296L900 192L836 311Z" fill="#205a7a" stroke="#205a7a"></path><path d="M900 600L900 523L816 522Z" fill="#205a7a" stroke="#205a7a"></path><path d="M900 0L770 0L799 73Z" fill="#297ea6" stroke="#297ea6"></path><path d="M799 73L770 0L731 68Z" fill="#1d4e6b" stroke="#1d4e6b"></path><path d="M127 77L0 120L130 167Z" fill="#205a7a" stroke="#205a7a"></path><path d="M61 0L0 120L127 77Z" fill="#246688" stroke="#246688"></path><path d="M804 600L900 600L816 522Z" fill="#205a7a" stroke="#205a7a"></path><path d="M0 485L0 600L96 600Z" fill="#205a7a" stroke="#205a7a"></path><path d="M237 0L61 0L127 77Z" fill="#0c2435" stroke="#0c2435"></path><path d="M900 192L900 75L799 73Z" fill="#19435d" stroke="#19435d"></path><path d="M900 75L900 0L799 73Z" fill="#297ea6" stroke="#297ea6"></path><path d="M61 0L0 0L0 120Z" fill="#246688" stroke="#246688"></path></g></svg>