<svg id="visual" viewBox="0 0 900 600" width="900" height="600" xmlns="http://www.w3.org/2000/svg" xmlns:xlink="http://www.w3.org/1999/xlink" version="1.1"><path d="M0 13L47 13L47 55L95 55L95 37L142 37L142 25L189 25L189 43L237 43L237 19L284 19L284 49L332 49L332 37L379 37L379 55L426 55L426 31L474 31L474 37L521 37L521 31L568 31L568 31L616 31L616 37L663 37L663 43L711 43L711 49L758 49L758 19L805 19L805 43L853 43L853 37L900 37L900 37L900 0L900 0L853 0L853 0L805 0L805 0L758 0L758 0L711 0L711 0L663 0L663 0L616 0L616 0L568 0L568 0L521 0L521 0L474 0L474 0L426 0L426 0L379 0L379 0L332 0L332 0L284 0L284 0L237 0L237 0L189 0L189 0L142 0L142 0L95 0L95 0L47 0L47 0L0 0Z" fill="#002244"></path><path d="M0 73L47 73L47 133L95 133L95 109L142 109L142 61L189 61L189 127L237 127L237 73L284 73L284 97L332 97L332 109L379 109L379 109L426 109L426 97L474 97L474 127L521 127L521 61L568 61L568 121L616 121L616 85L663 85L663 139L711 139L711 97L758 97L758 61L805 61L805 139L853 139L853 91L900 91L900 73L900 35L900 35L853 35L853 41L805 41L805 17L758 17L758 47L711 47L711 41L663 41L663 35L616 35L616 29L568 29L568 29L521 29L521 35L474 35L474 29L426 29L426 53L379 53L379 35L332 35L332 47L284 47L284 17L237 17L237 41L189 41L189 23L142 23L142 35L95 35L95 53L47 53L47 11L0 11Z" fill="#002040"></path><path d="M0 127L47 127L47 145L95 145L95 163L142 163L142 121L189 121L189 169L237 169L237 121L284 121L284 133L332 133L332 169L379 169L379 169L426 169L426 115L474 115L474 199L521 199L521 127L568 127L568 193L616 193L616 103L663 103L663 157L711 157L711 157L758 157L758 85L805 85L805 187L853 187L853 133L900 133L900 103L900 71L900 89L853 89L853 137L805 137L805 59L758 59L758 95L711 95L711 137L663 137L663 83L616 83L616 119L568 119L568 59L521 59L521 125L474 125L474 95L426 95L426 107L379 107L379 107L332 107L332 95L284 95L284 71L237 71L237 125L189 125L189 59L142 59L142 107L95 107L95 131L47 131L47 71L0 71Z" fill="#001e3b"></path><path d="M0 331L47 331L47 295L95 295L95 205L142 205L142 271L189 271L189 379L237 379L237 199L284 199L284 289L332 289L332 277L379 277L379 235L426 235L426 265L474 265L474 343L521 343L521 319L568 319L568 289L616 289L616 175L663 175L663 241L711 241L711 247L758 247L758 241L805 241L805 307L853 307L853 217L900 217L900 319L900 101L900 131L853 131L853 185L805 185L805 83L758 83L758 155L711 155L711 155L663 155L663 101L616 101L616 191L568 191L568 125L521 125L521 197L474 197L474 113L426 113L426 167L379 167L379 167L332 167L332 131L284 131L284 119L237 119L237 167L189 167L189 119L142 119L142 161L95 161L95 143L47 143L47 125L0 125Z" fill="#011c37"></path><path d="M0 373L47 373L47 349L95 349L95 307L142 307L142 397L189 397L189 415L237 415L237 301L284 301L284 397L332 397L332 349L379 349L379 349L426 349L426 331L474 331L474 403L521 403L521 409L568 409L568 343L616 343L616 235L663 235L663 301L711 301L711 307L758 307L758 325L805 325L805 373L853 373L853 331L900 331L900 361L900 317L900 215L853 215L853 305L805 305L805 239L758 239L758 245L711 245L711 239L663 239L663 173L616 173L616 287L568 287L568 317L521 317L521 341L474 341L474 263L426 263L426 233L379 233L379 275L332 275L332 287L284 287L284 197L237 197L237 377L189 377L189 269L142 269L142 203L95 203L95 293L47 293L47 329L0 329Z" fill="#011a33"></path><path d="M0 463L47 463L47 421L95 421L95 499L142 499L142 523L189 523L189 487L237 487L237 445L284 445L284 487L332 487L332 493L379 493L379 481L426 481L426 475L474 475L474 475L521 475L521 481L568 481L568 487L616 487L616 451L663 451L663 445L711 445L711 463L758 463L758 451L805 451L805 499L853 499L853 517L900 517L900 493L900 359L900 329L853 329L853 371L805 371L805 323L758 323L758 305L711 305L711 299L663 299L663 233L616 233L616 341L568 341L568 407L521 407L521 401L474 401L474 329L426 329L426 347L379 347L379 347L332 347L332 395L284 395L284 299L237 299L237 413L189 413L189 395L142 395L142 305L95 305L95 347L47 347L47 371L0 371Z" fill="#01182f"></path><path d="M0 517L47 517L47 499L95 499L95 517L142 517L142 571L189 571L189 517L237 517L237 505L284 505L284 535L332 535L332 529L379 529L379 541L426 541L426 499L474 499L474 559L521 559L521 547L568 547L568 541L616 541L616 523L663 523L663 499L711 499L711 505L758 505L758 511L805 511L805 529L853 529L853 535L900 535L900 559L900 491L900 515L853 515L853 497L805 497L805 449L758 449L758 461L711 461L711 443L663 443L663 449L616 449L616 485L568 485L568 479L521 479L521 473L474 473L474 473L426 473L426 479L379 479L379 491L332 491L332 485L284 485L284 443L237 443L237 485L189 485L189 521L142 521L142 497L95 497L95 419L47 419L47 461L0 461Z" fill="#01162a"></path><path d="M0 577L47 577L47 541L95 541L95 553L142 553L142 583L189 583L189 553L237 553L237 535L284 535L284 565L332 565L332 583L379 583L379 577L426 577L426 553L474 553L474 583L521 583L521 583L568 583L568 571L616 571L616 547L663 547L663 547L711 547L711 541L758 541L758 547L805 547L805 577L853 577L853 583L900 583L900 577L900 557L900 533L853 533L853 527L805 527L805 509L758 509L758 503L711 503L711 497L663 497L663 521L616 521L616 539L568 539L568 545L521 545L521 557L474 557L474 497L426 497L426 539L379 539L379 527L332 527L332 533L284 533L284 503L237 503L237 515L189 515L189 569L142 569L142 515L95 515L95 497L47 497L47 515L0 515Z" fill="#011426"></path><path d="M0 601L47 601L47 601L95 601L95 601L142 601L142 601L189 601L189 601L237 601L237 601L284 601L284 601L332 601L332 601L379 601L379 601L426 601L426 601L474 601L474 601L521 601L521 601L568 601L568 601L616 601L616 601L663 601L663 601L711 601L711 601L758 601L758 601L805 601L805 601L853 601L853 601L900 601L900 601L900 575L900 581L853 581L853 575L805 575L805 545L758 545L758 539L711 539L711 545L663 545L663 545L616 545L616 569L568 569L568 581L521 581L521 581L474 581L474 551L426 551L426 575L379 575L379 581L332 581L332 563L284 563L284 533L237 533L237 551L189 551L189 581L142 581L142 551L95 551L95 539L47 539L47 575L0 575Z" fill="#001122"></path></svg>